<?xml version="1.0" standalone="no"?><!DOCTYPE svg PUBLIC "-//W3C//DTD SVG 1.1//EN" "http://www.w3.org/Graphics/SVG/1.1/DTD/svg11.dtd"><svg t="1617718324656" class="icon" viewBox="0 0 1148 1024" version="1.1" xmlns="http://www.w3.org/2000/svg" p-id="23943" xmlns:xlink="http://www.w3.org/1999/xlink" width="17.9375" height="16"><defs><style type="text/css"></style></defs><path d="M1147.172313 445.659824C1147.172313 443.066723 1146.818709 440.512911 1146.07221 438.076967L1023.842842 19.998312C1020.385374 8.211488 1009.384338 0.078579 996.890304 0.078579L181.792119 0.078579C169.926716 0.078579 159.397153 7.34712 155.389633 18.269578L1.925181 436.348233C0.825078 439.334229 0.275026 442.477382 0.275026 445.659824 0.275026 500.507846 36.657023 546.751487 86.868895 563.685224L86.868895 886.290604C86.868895 962.119173 149.810536 1023.803553 227.132103 1023.803553L920.275947 1023.803553C997.597514 1023.803553 1060.539155 962.119173 1060.539155 886.290604L1060.539155 563.685224C1110.751026 546.790776 1147.172313 500.547136 1147.172313 445.659824ZM723.868166 968.798373 423.539884 968.798373 423.539884 781.820051C423.539884 736.32291 461.257722 699.312282 507.697809 699.312282L639.74953 699.312282C686.150328 699.312282 723.868166 736.32291 723.868166 781.820051L723.868166 968.798373ZM920.275947 968.798373 780.012738 968.798373 780.012738 781.820051C780.012738 705.991482 717.071097 644.307102 639.74953 644.307102L507.697809 644.307102C430.336953 644.307102 367.395311 705.991482 367.395311 781.820051L367.395311 968.798373 227.132103 968.798373C180.731305 968.798373 142.974178 931.787745 142.974178 886.290604L142.974178 569.500058C184.699536 564.66746 220.020719 540.386602 239.508268 505.851207 261.313893 544.472701 302.803515 570.953766 350.893757 570.953766 399.02329 570.953766 440.512911 544.472701 462.318536 505.851207 484.124161 544.472701 525.613782 570.953766 573.704025 570.953766 621.833557 570.953766 663.283889 544.472701 685.128803 505.851207 706.934428 544.472701 748.424049 570.953766 796.514292 570.953766 844.643825 570.953766 886.133446 544.472701 907.939071 505.851207 927.42662 540.386602 962.747803 564.66746 1004.433872 569.500058L1004.433872 886.290604C1004.433872 931.787745 966.676745 968.798373 920.275947 968.798373ZM1019.32456 515.948586C979.76012 515.948586 947.621379 484.399187 947.621379 445.659824 947.621379 430.454821 935.048766 418.157234 919.568737 418.157234 915.36477 418.157234 911.514407 419.13947 907.939071 420.750336 904.363734 419.13947 900.474082 418.157234 896.309404 418.157234 880.790086 418.157234 868.256762 430.454821 868.256762 445.659824 868.256762 484.399187 836.078732 515.948586 796.514292 515.948586 756.949852 515.948586 724.811112 484.399187 724.811112 445.659824 724.811112 430.454821 712.238499 418.157234 696.71918 418.157234 692.554503 418.157234 688.664851 419.13947 685.128803 420.750336 681.553467 419.13947 677.663815 418.157234 673.499137 418.157234 657.979818 418.157234 645.446495 430.454821 645.446495 445.659824 645.446495 484.399187 613.268465 515.948586 573.704025 515.948586 534.178874 515.948586 502.000844 484.399187 502.000844 445.659824 502.000844 430.454821 489.428232 418.157234 473.948202 418.157234 469.744235 418.157234 465.893873 419.13947 462.318536 420.750336 458.743199 419.13947 454.853547 418.157234 450.688869 418.157234 435.20884 418.157234 422.636228 430.454821 422.636228 445.659824 422.636228 484.399187 390.458197 515.948586 350.893757 515.948586 311.368607 515.948586 279.190577 484.399187 279.190577 445.659824 279.190577 430.454821 266.617964 418.157234 251.137935 418.157234 246.933968 418.157234 243.083605 419.13947 239.508268 420.750336 235.932932 419.13947 232.04328 418.157234 227.878602 418.157234 212.398573 418.157234 199.82596 430.454821 199.82596 445.659824 199.82596 484.399187 167.64793 515.948586 128.08349 515.948586 90.051337 515.948586 58.855542 486.756551 56.498177 450.060239L201.515405 55.083759 975.71331 55.083759 1090.988451 449.195872C1089.06327 486.324368 1057.671028 515.948586 1019.32456 515.948586Z" p-id="23944" fill="#eeeeee"></path></svg>