<?xml version="1.0" standalone="no"?><!DOCTYPE svg PUBLIC "-//W3C//DTD SVG 1.1//EN" "http://www.w3.org/Graphics/SVG/1.1/DTD/svg11.dtd"><svg t="1617718211538" class="icon" viewBox="0 0 1024 1024" version="1.1" xmlns="http://www.w3.org/2000/svg" p-id="23369" xmlns:xlink="http://www.w3.org/1999/xlink" width="16" height="16"><defs><style type="text/css"></style></defs><path d="M511.3 980.8c-63 0-124.1-12.3-181.6-36.7-55.6-23.5-105.5-57.1-148.3-100-42.8-42.8-76.5-92.7-100-148.3C57 638.2 44.7 577.1 44.7 514.1S57 390 81.4 332.5c23.5-55.6 57.1-105.5 100-148.3s92.8-76.5 148.3-100c57.5-24.3 118.7-36.7 181.6-36.7 63 0 124.1 12.3 181.6 36.7 55.6 23.5 105.5 57.1 148.3 100 42.8 42.8 76.5 92.8 100 148.3C965.6 390 978 451.1 978 514.1s-12.3 124.1-36.7 181.6c-23.5 55.6-57.1 105.5-100 148.3-42.8 42.8-92.7 76.5-148.3 100-57.6 24.4-118.7 36.8-181.7 36.8z m0-896.5c-237 0-429.8 192.8-429.8 429.8S274.3 944 511.3 944s429.8-192.8 429.8-429.8S748.3 84.3 511.3 84.3z" fill="#eeeeee" p-id="23370"></path><path d="M799.7 733.7H223c-12.8 0-23.2-10.4-23.2-23.2V317.8c0-12.8 10.4-23.2 23.2-23.2h576.8c12.8 0 23.2 10.4 23.2 23.2v392.7c-0.1 12.8-10.5 23.2-23.3 23.2z m-563.2-36.8h549.6V331.3H236.5v365.6z" fill="#eeeeee" p-id="23371"></path><path d="M523.5 595.6h-21.6V471.1c0-9.8 0.6-21.9 1.8-36.1h-0.5c-2.1 8.4-3.9 14.4-5.6 18l-63.4 142.6h-10.6L360.4 454c-1.8-4.1-3.7-10.5-5.6-19h-0.5c0.7 7.4 1 19.5 1 36.4v124.2h-21V410H363l57 129.4c4.4 9.9 7.2 17.3 8.5 22.3h0.8c3.7-10.2 6.7-17.8 8.9-22.8L496.4 410h27.2v185.6zM710.3 410l-68.7 185.5h-23.9L550.3 410h24.2l51.4 147.1c1.6 4.7 2.9 10.2 3.8 16.4h0.5c0.7-5.2 2.1-10.7 4.3-16.7L686.8 410h23.5z" fill="#eeeeee" p-id="23372"></path></svg>