<?xml version="1.0" standalone="no"?><!DOCTYPE svg PUBLIC "-//W3C//DTD SVG 1.1//EN" "http://www.w3.org/Graphics/SVG/1.1/DTD/svg11.dtd"><svg t="1617717861103" class="icon" viewBox="0 0 1024 1024" version="1.1" xmlns="http://www.w3.org/2000/svg" p-id="22383" xmlns:xlink="http://www.w3.org/1999/xlink" width="16" height="16"><defs><style type="text/css"></style></defs><path d="M821 242.9H205.5c-14.4-0.1-28.2 5.5-38.4 15.6s-15.9 23.9-15.9 38.2v434.9c0.2 29.9 24.4 54.1 54.3 54.3H821c14.4 0.1 28.2-5.5 38.4-15.6s15.9-23.9 15.9-38.2V296.8c-0.5-29.8-24.6-53.7-54.3-53.9zM196.5 469.2h98.3v90.5h-98.3v-90.5z m143.5-181h332.1v452.5H340V288.2z m377.3 181H830v90.5H717.3v-90.5zM830 324.4V424H717.3V288.2h76.9c19.9 0.2 35.8 16.3 35.8 36.2z m-597.8-36.2h62.5V424h-98.3v-99.6c0.1-19.9 16-36 35.8-36.2z m-35.7 416.3v-99.6h98.3v135.8h-62.5c-19.9-0.2-35.8-16.4-35.8-36.2z m597.8 36.2h-76.9V604.9H830v99.6c0 19.8-15.9 36-35.7 36.2z" p-id="22384" fill="#eeeeee"></path><path d="M593.9 494.5l-120.8-60.6c-11.3-5.4-19.9 0-19.9 12.2v136.7c0 12.2 9.1 17.6 20.4 12.2l102.7-51.1 17.7-9.1c21.6-10.9 22.1-29-0.1-40.3z" p-id="22385" fill="#eeeeee"></path></svg>