<?xml version="1.0" standalone="no"?><!DOCTYPE svg PUBLIC "-//W3C//DTD SVG 1.1//EN" "http://www.w3.org/Graphics/SVG/1.1/DTD/svg11.dtd"><svg t="1618225146836" class="icon" viewBox="0 0 1025 1024" version="1.1" xmlns="http://www.w3.org/2000/svg" p-id="6486" xmlns:xlink="http://www.w3.org/1999/xlink" width="16.015625" height="16"><defs><style type="text/css"></style></defs><path d="M574.8736 952.32a69.2224 69.2224 0 0 1-30.5152-7.2704l-3.4816-2.048-317.1328-220.8768V260.9152L544.3584 37.9904c22.3232-11.0592 47.3088-9.4208 68.4032 4.4032 24.2688 15.9744 39.424 46.08 39.424 78.7456v740.864c0 32.5632-15.0528 62.7712-39.424 78.7456-11.776 7.68-24.7808 11.5712-37.888 11.5712z m-5.2224-58.6752c4.608 1.8432 9.1136 1.2288 13.5168-1.7408 6.5536-4.3008 13.6192-14.4384 13.6192-30.0032V121.1392c0-15.5648-6.9632-25.7024-13.6192-30.0032-4.5056-2.9696-9.0112-3.4816-13.5168-1.7408L279.1424 291.6352v399.7696l290.5088 202.24z" p-id="6487" fill="#f1f1f1"></path><path d="M78.5408 750.8992h-1.1264c-42.7008 0-77.4144-40.5504-77.4144-90.3168V322.3552c0-49.7664 34.7136-90.3168 77.4144-90.3168l2.3552 0.1024 199.4752 17.6128V733.184l-200.704 17.7152z m-2.048-461.2096c-11.5712 0.7168-21.1968 15.36-21.1968 32.6656v338.2272c0 16.9984 9.8304 31.9488 21.1968 32.6656l147.2512-13.0048V302.6944L76.4928 289.6896zM997.4784 520.2944H748.8512c-15.2576 0-27.7504-12.9024-27.7504-28.7744s12.3904-28.7744 27.7504-28.7744H997.5808c15.2576 0 27.7504 12.9024 27.7504 28.7744s-12.4928 28.7744-27.8528 28.7744zM968.3968 822.6816c-5.12 0-10.3424-1.4336-14.9504-4.608L738.0992 674.0992c-12.9024-8.6016-16.5888-26.4192-8.2944-39.8336s25.3952-17.3056 38.2976-8.6016l215.3472 143.9744c12.9024 8.6016 16.5888 26.4192 8.2944 39.8336-5.3248 8.6016-14.2336 13.2096-23.3472 13.2096zM765.5424 361.8816c-9.1136 0-18.0224-4.7104-23.3472-13.2096-8.2944-13.4144-4.608-31.232 8.2944-39.8336L965.8368 164.9664c12.9024-8.6016 30.0032-4.7104 38.2976 8.6016 8.2944 13.4144 4.608 31.232-8.2944 39.8336L780.4928 357.376c-4.608 3.072-9.8304 4.5056-14.9504 4.5056z" p-id="6488" fill="#f1f1f1"></path></svg>